# xmcd
# Track frame offsets:
# 150
# 15807
# 26340
# 39742
# 49132
# 63245
# 77052
# 91772
# 112867
# 129310
#
# Disc length: 1856 seconds
# Revision: 0
# Processed by: cddbd v1.4PL0 Copyright (c) Steve Scherf et al.
# Submitted via: VisiTrax 2.9.5.180 - For more info visit www.synapsa.com
#
DISCID=67073e0a
DTITLE=Hal Willis - Santa's clones
DYEAR=1999
DGENRE=Christmas
TTITLE0=Santa's clones
TTITLE1=Let's go for a sleigh ride
TTITLE2=The sounds of christmas
TTITLE3=The christmas polka
TTITLE4=Mrs. Santa Claus
TTITLE5=Santa superstar
TTITLE6=555 Ho! HO!
TTITLE7=Santa's reindeer clones
TTITLE8=Kris Kringle's Krick
TTITLE9=Santa and the lumberjack
EXTD=
EXTT0=
EXTT1=
EXTT2=
EXTT3=
EXTT4=
EXTT5=
EXTT6=
EXTT7=
EXTT8=
EXTT9=
PLAYORDER=
